<?xml version="1.0" encoding="UTF-8" standalone="no"?>
<svg
   xmlns:dc="http://purl.org/dc/elements/1.1/"
   xmlns:cc="http://creativecommons.org/ns#"
   xmlns:rdf="http://www.w3.org/1999/02/22-rdf-syntax-ns#"
   xmlns:svg="http://www.w3.org/2000/svg"
   xmlns="http://www.w3.org/2000/svg"
   xmlns:xlink="http://www.w3.org/1999/xlink"
   xmlns:sodipodi="http://sodipodi.sourceforge.net/DTD/sodipodi-0.dtd"
   xmlns:inkscape="http://www.inkscape.org/namespaces/inkscape"
   width="91.039314mm"
   height="43.841908mm"
   viewBox="0 0 91.039317 43.841908"
   version="1.1"
   id="svg8"
   inkscape:version="1.0.1 (c497b03c, 2020-09-10)"
   sodipodi:docname="fm-fitness copy.svg">
  <defs
     id="defs2">
    <rect
       x="117.42906"
       y="95.754415"
       width="29.117"
       height="12.454004"
       id="rect1552" />
  </defs>
  <sodipodi:namedview
     id="base"
     pagecolor="#1f1c1c"
     bordercolor="#666666"
     borderopacity="1.0"
     inkscape:pageopacity="0"
     inkscape:pageshadow="2"
     inkscape:zoom="4.5888856"
     inkscape:cx="205.85257"
     inkscape:cy="72.874311"
     inkscape:document-units="mm"
     inkscape:current-layer="layer1"
     inkscape:document-rotation="0"
     showgrid="false"
     inkscape:window-width="2867"
     inkscape:window-height="1633"
     inkscape:window-x="846"
     inkscape:window-y="60"
     inkscape:window-maximized="0"
     height="147mm"
     fit-margin-top="5"
     fit-margin-left="5"
     fit-margin-right="5"
     fit-margin-bottom="5"
     lock-margins="true"
     inkscape:pagecheckerboard="true"
     borderlayer="false"
     inkscape:showpageshadow="true"
     showborder="true" />
  <metadata
     id="metadata5">
    <rdf:RDF>
      <cc:Work
         rdf:about="">
        <dc:format>image/svg+xml</dc:format>
        <dc:type
           rdf:resource="http://purl.org/dc/dcmitype/StillImage" />
        <dc:title></dc:title>
      </cc:Work>
    </rdf:RDF>
  </metadata>
  <g
     inkscape:label="Layer 1"
     inkscape:groupmode="layer"
     id="layer1"
     transform="translate(-39.245591,-54.932957)">
    <g
       transform="matrix(0.00659613,0,0,-0.00661704,44.214259,93.806296)"
       fill="#000000"
       stroke="none"
       id="g841">
      <path
         d="M 2330,5110 C 1848,5067 1380,4880 980,4572 785,4422 532,4140 386,3910 323,3811 200,3559 156,3439 107,3305 54,3099 28,2940 -3,2745 -3,2375 28,2180 73,1904 144,1682 265,1435 397,1166 534,975 754,754 975,534 1166,397 1435,265 1682,144 1904,73 2180,28 c 195,-31 565,-31 760,0 159,26 365,79 499,128 120,44 372,167 471,230 321,204 620,503 824,824 63,99 186,351 230,471 86,234 141,514 152,774 6,129 5,156 -10,186 -21,45 -57,66 -138,79 -168,26 -281,103 -370,253 -65,109 -110,120 -229,58 -97,-51 -167,-71 -249,-71 -129,0 -240,44 -338,134 -99,93 -152,215 -152,356 0,136 -44,180 -181,180 -313,0 -543,284 -478,592 10,47 33,101 83,193 36,68 12,129 -71,176 -32,18 -84,57 -115,87 -88,84 -128,162 -148,290 -21,128 -55,153 -207,151 -54,-1 -136,-5 -183,-9 z m 177,-313 c 33,-106 87,-191 184,-289 l 86,-86 -23,-70 c -138,-410 110,-857 524,-947 43,-10 84,-20 92,-25 8,-4 18,-28 22,-53 3,-26 14,-70 24,-99 128,-393 546,-605 935,-475 l 71,24 86,-86 c 99,-98 184,-152 291,-184 l 73,-22 -6,-100 c -6,-100 -193.6804,-106.9296 -216.6804,-188.9296 -10,-39 179.6804,-31.78 160.6804,-26.78 -301,89 -646,-296.2904 -690,-607.2904 -22,-158 26,-303 140,-425 33,-36 60,-69 60,-74 0,-14 -246,-253 -325,-315 -341,-269 -750,-436 -1190,-487 -116,-14 -369,-14 -493,0 -423,45 -840,215 -1178,480 -491,385 -811,964 -875,1588 -15,143 -6,461 16,591 22,125 48,236 80,338 24,77 28,83 48,77 130,-40 200,-44 313,-15 141,36 260,130 327,258 44,84 59,144 58,247 0,130 192.0206,226.2199 105.0206,318.2199 l 47.3402,195.6804 L 1019,4282 c 299,264 645,445 1021,532 135,31 289,54 380,55 l 65,1 z"
         id="path833"
         sodipodi:nodetypes="ccccccccccccccccccccscssccccccccccccccccccccsccccscccccccccccccccccc" />
      <path
         d="m 1675.7096,4059.0704 c -161,-44 -296.6099,-367.0704 -344.6099,-533.0704 -19,-67 18.1701,-230.1701 36.1701,-301.1701 C 1410.2698,3043.8299 1661,2928 1841,2885 c 247,-58 577.7302,30.2199 686.7302,263.2199 130,274 12.5602,846.2406 -285.4398,924.2406 -73,18 -496.5808,4.6099 -566.5808,-13.3901 z"
         id="path835"
         sodipodi:nodetypes="ccccccc" />
      <path
         d="M 2845.0498,2645.9502 C 2491.0498,2582.9502 2311,2162 2374,1810 c 24,-133 89,-254 190,-355 126,-125 254,-262.3402 432,-272.3402 198,-11 466.1203,10.8299 607.1203,150.8299 139,140 281.3402,393.7302 271.3402,594.7302 -8,174 -93.7801,479.0705 -223.7801,610.0705 -85,85 -297.2904,99.2199 -410.2904,137.2199 -88,29 -308.3402,-13.5601 -395.3402,-29.5601 z"
         id="path837"
         sodipodi:nodetypes="ccccccccc" />
      <path
         d="M 1459.4399,2156.5103 C 1119.4399,2078.5103 892.87973,1568 1067.8797,1275 1149.8797,1139 1391,951.26977 1542,926.26977 c 273,-47 649.1203,212.95013 695.1203,489.95013 34,198 -89.7801,545.9004 -261.7801,655.9004 -110,71 -393.9003,111.39 -515.9003,84.39 z"
         id="path839"
         sodipodi:nodetypes="cccccc" />
    </g>
    <path
       style="fill:#502d16;fill-rule:evenodd;stroke-width:0.0928413"
       d="M 60.15441,92.425841 C 57.388042,92.1559 55.085713,91.390039 52.876582,90.004898 48.762105,87.425094 46.070765,83.143436 45.460558,78.206731 c -0.141899,-1.147993 -0.04714,-3.420569 0.194372,-4.661732 0.211489,-1.086849 0.57897,-2.346567 0.678076,-2.324422 0.902008,0.201573 1.39799,0.234672 1.939164,0.129407 1.222222,-0.237737 2.169173,-0.974003 2.695309,-2.095639 0.242396,-0.516745 0.278599,-0.698917 0.279746,-1.407618 0.0016,-0.956491 -0.215097,-1.640072 -0.735223,-2.319845 l -0.331318,-0.433011 0.408907,-0.363855 c 0.636942,-0.566771 1.743176,-1.389719 2.455833,-1.826942 2.133412,-1.30888 4.942547,-2.220046 6.951275,-2.254706 l 0.818302,-0.01412 0.159209,0.464863 c 0.232743,0.679581 0.575045,1.216929 1.22709,1.926302 l 0.578422,0.629277 -0.170257,0.576221 c -0.234581,0.793918 -0.235516,2.249122 -0.0019,2.940859 0.666881,1.974544 1.878137,3.062103 4.024143,3.613193 0.377077,0.09683 0.392092,0.11538 0.49545,0.612064 0.25923,1.245717 1.296515,2.710154 2.360067,3.331944 1.307384,0.764344 3.031332,0.949147 4.401437,0.471825 l 0.348185,-0.121304 0.587765,0.546757 c 0.752413,0.699922 1.173319,0.974759 1.896571,1.238404 l 0.583129,0.212564 -0.01949,0.680672 c -0.01953,0.682996 -0.156397,1.697384 -0.310748,2.303458 l -0.08266,0.324556 h -1.048423 c -0.953312,0 -1.099028,0.02355 -1.60615,0.259506 -0.732009,0.340597 -1.450992,1.054796 -1.782727,1.770872 -0.235018,0.507303 -0.262251,0.667187 -0.262251,1.539757 0,0.875647 0.02495,1.020798 0.247648,1.441727 0.136205,0.25743 0.440446,0.695581 0.676088,0.973673 l 0.428436,0.505619 -1.127607,1.090969 c -1.742391,1.685784 -3.630365,2.845008 -5.90326,3.624634 -2.030244,0.696392 -4.476198,1.016882 -6.358774,0.833182 z m -3.94258,-5.420614 c 0.625445,-0.233451 1.486405,-1.002971 1.821083,-1.627678 1.069204,-1.995758 0.0099,-4.566906 -2.138167,-5.189879 -0.329554,-0.09557 -0.756542,-0.133664 -1.258902,-0.112295 -1.380898,0.05874 -2.43847,0.784226 -3.064333,2.102121 -0.266022,0.560172 -0.294154,0.703658 -0.294154,1.500349 0,0.761734 0.03371,0.952693 0.249121,1.411184 0.470823,1.002121 1.450819,1.805602 2.539483,2.082064 0.590449,0.149946 1.485008,0.0808 2.145869,-0.165866 z m 9.657785,-1.615388 c 1.359617,-0.353284 2.592278,-1.481495 3.094504,-2.832295 1.024611,-2.7558 -0.828474,-5.812228 -3.771856,-6.221198 -1.44451,-0.200707 -2.7276,0.224816 -3.778031,1.252948 -1.497339,1.465548 -1.860207,3.615712 -0.922149,5.464178 0.315173,0.621056 1.432635,1.731508 2.028787,2.016063 0.966128,0.461149 2.311483,0.58983 3.348745,0.320304 z M 58.701884,74.097505 c 0.68527,-0.312976 1.355904,-0.953647 1.742318,-1.66447 0.300466,-0.552724 0.314405,-0.62153 0.314405,-1.552036 0,-0.902621 -0.02166,-1.019283 -0.296812,-1.598748 -0.694452,-1.462486 -2.093792,-2.239156 -3.721088,-2.065305 -1.13521,0.12128 -2.2728,0.94995 -2.823588,2.056828 -0.19637,0.394631 -0.222969,0.575321 -0.222945,1.514494 2.6e-5,0.989831 0.0188,1.101963 0.261438,1.561606 0.30553,0.578782 0.881455,1.228899 1.338044,1.51041 0.965508,0.595288 2.404874,0.695472 3.408228,0.237221 z"
       id="path851" />
    <path
       style="fill:#e9c6af;fill-opacity:1;fill-rule:evenodd;stroke-width:0.0884625"
       d="m 59.63984,92.34315 c -4.008392,-0.595506 -7.157399,-2.160394 -9.717477,-4.829077 -2.362522,-2.462748 -3.747515,-5.265618 -4.330664,-8.764154 -0.124079,-0.7444 -0.142659,-1.240925 -0.100731,-2.691835 0.05303,-1.834965 0.171509,-2.644533 0.597907,-4.085414 0.216712,-0.732308 0.165426,-0.70379 1.0381,-0.577211 1.563639,0.226801 3.11436,-0.611734 3.858153,-2.086258 0.246382,-0.488437 0.263895,-0.588868 0.261244,-1.498161 -0.0025,-0.873819 -0.02803,-1.029224 -0.246402,-1.502499 -0.133959,-0.290332 -0.341342,-0.65648 -0.460852,-0.81366 -0.119509,-0.157185 -0.217289,-0.326384 -0.217289,-0.376006 0,-0.147579 1.21035,-1.130733 2.252221,-1.829457 2.210635,-1.482546 4.970391,-2.461188 7.286597,-2.583911 l 0.927385,-0.04914 0.200198,0.564855 c 0.189342,0.534227 0.603866,1.156068 1.378238,2.067534 l 0.341925,0.402456 -0.143198,0.571885 c -0.162527,0.649069 -0.187996,2.092627 -0.04775,2.706219 0.161333,0.705842 0.681291,1.6575 1.222705,2.237864 0.616655,0.661019 1.377625,1.131428 2.343014,1.44838 0.390935,0.128349 0.755514,0.278453 0.810177,0.333565 0.05466,0.05511 0.182559,0.379299 0.284213,0.720417 0.25086,0.841802 0.739103,1.6428 1.427005,2.341104 1.005376,1.020576 2.291439,1.482551 3.907006,1.403456 0.49861,-0.02441 1.081555,-0.106841 1.295435,-0.183177 l 0.388871,-0.138791 0.654538,0.57266 c 0.815016,0.71307 1.15607,0.930374 1.870117,1.191555 l 0.564131,0.206345 -0.05519,0.842845 c -0.03037,0.463566 -0.118765,1.189903 -0.196472,1.614088 l -0.141293,0.771243 -1.118527,0.03387 c -0.993473,0.03006 -1.173002,0.06038 -1.605759,0.271155 -0.622282,0.303091 -1.405365,1.087776 -1.730353,1.733901 -0.236677,0.470545 -0.253404,0.573595 -0.25439,1.566899 -8.16e-4,1.002493 0.01321,1.089059 0.248846,1.515444 0.137448,0.248721 0.425244,0.666652 0.639551,0.928737 l 0.38965,0.476515 -0.551224,0.562787 c -2.416979,2.467649 -5.137283,3.970558 -8.456085,4.6718 -0.928098,0.196103 -1.378484,0.237842 -2.826317,0.261918 -0.947257,0.01575 -1.841522,0.0109 -1.987254,-0.01074 z m -3.210752,-5.416304 c 0.704768,-0.348055 1.404812,-1.062423 1.736131,-1.771657 0.213372,-0.456745 0.238108,-0.61095 0.238108,-1.484323 0,-0.912253 -0.01804,-1.012847 -0.282025,-1.571871 -0.701846,-1.486302 -2.205764,-2.274567 -3.851037,-2.018488 -0.337426,0.05252 -0.82181,0.19435 -1.076409,0.315176 -0.610432,0.289695 -1.309724,1.04374 -1.66034,1.790339 -0.25786,0.549086 -0.281138,0.672409 -0.280272,1.484844 8.16e-4,0.769353 0.03156,0.952239 0.233431,1.388858 0.393508,0.851097 1.267344,1.666391 2.183242,2.036973 0.320354,0.129621 0.59234,0.158957 1.293951,0.139583 0.79493,-0.02195 0.948994,-0.05449 1.46522,-0.309434 z m 9.329859,-1.484863 c 2.366963,-0.559815 3.925231,-2.995912 3.428257,-5.359513 -0.201959,-0.960518 -0.594789,-1.695592 -1.278806,-2.39293 -0.92835,-0.946443 -2.046312,-1.416972 -3.366665,-1.416972 -1.302229,0 -2.287606,0.423541 -3.239094,1.392248 -1.404763,1.430186 -1.756199,3.582996 -0.870982,5.335426 0.259042,0.512815 1.044255,1.387573 1.622926,1.808003 0.936322,0.680276 2.42835,0.935534 3.704364,0.633738 z m -6.984696,-11.34407 c 0.620421,-0.303445 1.390213,-1.062346 1.748584,-1.72385 0.249797,-0.46109 0.263972,-0.54214 0.263428,-1.506239 -5.71e-4,-0.9773 -0.01262,-1.043096 -0.29539,-1.610503 -0.162146,-0.325363 -0.464458,-0.769182 -0.671801,-0.986265 -1.527788,-1.59954 -4.101048,-1.452264 -5.508841,0.315295 -0.532573,0.668674 -0.632151,1.01672 -0.632151,2.209498 0,0.963593 0.02136,1.107836 0.224027,1.512612 0.307857,0.614869 0.844795,1.236472 1.347715,1.560218 0.628242,0.404419 1.246946,0.548238 2.199593,0.511302 0.672178,-0.02607 0.901031,-0.07479 1.324836,-0.282068 z"
       id="path853" />
    <use
       x="0"
       y="0"
       xlink:href="#g841"
       id="use885"
       width="100%"
       height="100%" />
    <use
       x="0"
       y="0"
       xlink:href="#path851"
       id="use887"
       width="100%"
       height="100%" />
    <use
       x="0"
       y="0"
       xlink:href="#path853"
       id="use889"
       width="100%"
       height="100%" />
    <text
       xml:space="preserve"
       style="font-size:15.31px;line-height:1.25;font-family:Phosphate;-inkscape-font-specification:'Phosphate, Normal';fill:#ffffff;stroke:#ffffff;stroke-width:0.38275"
       x="67.376297"
       y="71.869232"
       id="text1488"
       transform="scale(0.98946778,1.0106443)"><tspan
         sodipodi:role="line"
         id="tspan1486"
         x="67.376297"
         y="71.869232"
         style="fill:#ffffff;stroke:#ffffff;stroke-width:0.38275">COOKIES</tspan></text>
    <text
       xml:space="preserve"
       style="font-size:10.5833px;line-height:1.25;font-family:Phosphate;-inkscape-font-specification:'Phosphate, Normal';stroke-width:0.264583"
       x="191.04752"
       y="47.712318"
       id="text1492"><tspan
         sodipodi:role="line"
         id="tspan1490"
         x="191.04752"
         y="47.712318"
         style="stroke-width:0.264583" /></text>
    <text
       xml:space="preserve"
       style="font-size:10.5833px;line-height:1.25;font-family:Phosphate;-inkscape-font-specification:'Phosphate, Normal';stroke-width:0.264583"
       x="117.79917"
       y="46.115437"
       id="text1496"><tspan
         sodipodi:role="line"
         id="tspan1494"
         x="117.79917"
         y="46.115437"
         style="stroke-width:0.264583" /></text>
    <path
       d="m 87.304112,69.101611 c -1.612366,3.275003 -3.519673,11.301593 -2.634838,11.017633 0.117974,-0.0379 0.412921,-0.586853 0.648875,-1.211567 0.570228,-1.495512 1.179781,-2.442047 2.005628,-3.028893 0.786514,-0.586853 1.022474,-0.492197 0.904494,0.340747 -0.05901,0.416476 -0.432587,0.965462 -1.140454,1.703758 -1.081465,1.097977 -1.219103,1.363003 -0.845505,1.590175 0.373597,0.208238 1.022472,-0.283967 1.789332,-1.325142 0.530904,-0.71937 1.042138,-1.154773 1.907304,-1.609109 l 1.199442,-0.60578 v 0.567919 c 0,0.378615 0.137642,0.643641 0.412917,0.776157 0.511243,0.265026 1.002815,-0.01891 2.379224,-1.400871 l 0.983152,-0.965454 -0.09832,0.757223 c -0.059,0.416469 -0.176965,1.306208 -0.25562,1.98771 -0.09831,0.927608 -0.3146,1.53338 -0.865166,2.460988 -0.924159,1.514453 -1.061801,1.968783 -0.786518,2.46098 0.511235,0.908674 1.219104,0.132517 1.691015,-1.817339 0.373601,-1.609102 0.550566,-1.911996 2.103943,-3.767197 1.160118,-1.381937 1.376408,-1.798413 0.943821,-1.798413 -0.137641,0 -1.730341,1.836274 -2.221915,2.53671 -0.275283,0.416476 -0.294944,-0.03782 -0.03934,-1.874135 0.314607,-2.3474 0.137634,-2.631361 -0.865173,-1.419798 -1.06181,1.268348 -2.182596,2.271677 -2.516865,2.271677 -0.235959,0 -0.275283,-0.151451 -0.157303,-0.719363 0.059,-0.378615 0.255621,-0.908673 0.412925,-1.154765 0.393254,-0.58686 0,-1.041189 -0.432587,-0.47327 -0.157304,0.189304 -0.294946,0.435402 -0.294946,0.548992 0,0.09465 -0.629214,0.511124 -1.376408,0.889732 -1.356745,0.681502 -1.376408,0.700436 -1.258427,0.246099 0.196626,-0.738289 -0.07866,-1.230487 -0.668547,-1.230487 -0.629212,0 -1.887645,0.927601 -2.418545,1.779479 -0.373597,0.56792 -0.373597,0.586846 -0.373597,0.113583 0,-0.530059 0.747195,-2.574563 1.966299,-5.470952 0.963485,-2.32847 1.179782,-3.237139 0.727533,-3.237139 -0.176965,0 -0.530902,0.435405 -0.825849,1.060112 z"
       id="use891"
       style="fill:#b63651;fill-opacity:1;stroke-width:0.0192933" />
    <path
       d="m 116.2087,69.404504 c -0.66854,0.757226 -1.67135,2.688148 -2.3399,4.505491 -0.58989,1.552313 -1.51405,2.669218 -3.04776,3.615745 -0.86518,0.530058 -1.78933,0.719369 -1.78933,0.378615 0,-0.09465 -0.059,-0.302886 -0.11798,-0.473264 -0.0786,-0.189304 0.0786,-0.359681 0.55056,-0.548985 1.17978,-0.492197 2.06462,-1.628036 1.80898,-2.309537 -0.23594,-0.548988 -1.04212,-0.302894 -2.14325,0.662567 -0.58989,0.511125 -1.19945,0.946535 -1.35676,0.946535 -0.15729,0 -0.41291,-0.208238 -0.58987,-0.473264 -0.17697,-0.265033 -0.39326,-0.473271 -0.49158,-0.473271 -0.31461,0 -1.23877,1.04119 -1.71068,1.893062 -0.64888,1.230494 -0.57023,0.586853 0.13764,-1.06011 0.39326,-0.927607 0.55057,-1.495519 0.43259,-1.609109 -0.25562,-0.246099 -0.47192,0.0379 -1.00281,1.287282 -0.86518,1.987724 -1.12079,4.335115 -0.41294,3.918646 0.0983,-0.05681 0.51124,-0.719362 0.88484,-1.457658 0.39327,-0.757231 0.88484,-1.552315 1.12079,-1.798406 l 0.39327,-0.416484 0.39326,0.39755 c 0.27527,0.283952 0.55055,0.378608 0.94381,0.32182 0.53092,-0.07572 0.57024,-0.0379 0.57024,0.548992 0,1.893055 1.31741,1.855201 3.95225,-0.113589 l 0.53091,-0.397542 -0.0983,1.571241 c -0.0983,1.268355 -0.059,1.609102 0.19663,1.81734 0.55056,0.416476 1.10112,0.0379 2.32023,-1.552307 l 1.17978,-1.552315 -0.13764,1.249421 c -0.13765,1.36301 0.0786,2.063439 0.66854,2.063439 0.41292,0 1.0618,-0.624707 2.00563,-1.949856 0.62921,-0.870813 0.6882,-0.88974 0.84551,-0.473264 0.4719,1.249421 1.94663,0.851879 4.32585,-1.154772 0.82585,-0.719363 1.19944,-1.34407 0.78652,-1.34407 -0.0983,0 -0.80619,0.548986 -1.61236,1.230487 -1.84832,1.552315 -2.96912,1.836274 -2.96912,0.757231 0,-0.283967 0.13764,-0.473271 0.45225,-0.548993 0.23596,-0.05681 0.72754,-0.378608 1.08147,-0.700435 0.98315,-0.927601 1.08146,-1.874135 0.21629,-1.874135 -0.68821,0 -1.16011,0.378615 -1.88765,1.476593 -1.0618,1.628036 -2.89045,3.805057 -3.10675,3.748269 -0.11798,-0.0379 -0.17697,-0.511132 -0.13764,-1.079051 0.11798,-1.930922 0.5899,-3.331786 1.67135,-5.073409 1.39607,-2.195952 2.24158,-4.126875 1.9663,-4.391905 -0.11798,-0.113586 -0.31461,-0.151444 -0.43259,-0.07572 -0.53089,0.302888 -1.65168,2.233817 -2.39888,4.070085 -0.43258,1.097975 -0.88484,2.195953 -1.02247,2.460985 -0.3736,0.757224 -3.06742,4.164739 -3.28372,4.164739 -0.29495,0 -0.23596,-1.135839 0.11798,-2.801735 0.21629,-1.022256 0.57022,-1.911989 1.2191,-2.97211 1.2781,-2.12023 2.20225,-3.994363 2.20225,-4.429769 0,-0.624712 -0.33427,-0.624712 -0.88482,0.01894 z m -0.39326,1.855202 c -0.3736,0.719366 -0.7472,1.325141 -0.78652,1.325141 -0.059,0 0.21628,-0.605775 0.58988,-1.325141 0.3736,-0.738294 0.74719,-1.325143 0.78652,-1.325143 0.059,0 -0.21629,0.586849 -0.58988,1.325143 z m 3.65731,-0.01894 c -0.33428,0.643645 -0.66855,1.154772 -0.70788,1.154772 -0.11798,0 -0.059,-0.151449 0.68822,-1.552313 0.27528,-0.492195 0.51123,-0.851879 0.55056,-0.814021 0.0393,0.01894 -0.21629,0.567923 -0.5309,1.211562 z m -8.78935,3.842923 c -0.41293,0.719355 -1.45507,1.514446 -1.45507,1.116904 0,-0.302894 1.00282,-1.344076 1.29777,-1.344076 0.17696,0 0.23594,0.09465 0.1573,0.227172 z m 11.5225,-0.09466 c 0,0.189304 -1.2191,1.381937 -1.41573,1.381937 -0.25562,0 0.39326,-1.097977 0.76686,-1.306215 0.41292,-0.227165 0.64887,-0.265033 0.64887,-0.07572 z"
       id="use893"
       style="fill:#b63651;fill-opacity:1;stroke-width:0.0192933" />
    <text
       xml:space="preserve"
       style="font-size:10.58329999999999949px;line-height:1.25;font-family:Phosphate;-inkscape-font-specification:'Phosphate, Normal';stroke-width:0.264583;fill:#ffffff;fill-opacity:1;stroke:#ffffff;"
       x="107.85793"
       y="93.79406"
       id="text1536"><tspan
         sodipodi:role="line"
         id="tspan1534"
         x="107.85793"
         y="93.79406"
         style="stroke-width:0.264583;fill:#ffffff;fill-opacity:1;stroke:#ffffff;" /></text>
    <text
       xml:space="preserve"
       style="font-size:10.5833px;line-height:1.25;font-family:Phosphate;-inkscape-font-specification:'Phosphate, Normal';fill:#ffffff;stroke:#ffffff;stroke-width:0.264583"
       x="107.97324"
       y="88.201294"
       id="text1540"><tspan
         sodipodi:role="line"
         id="tspan1538"
         x="107.97324"
         y="88.201294"
         style="fill:#ffffff;stroke:#ffffff;stroke-width:0.264583" /></text>
    <text
       xml:space="preserve"
       style="font-size:10.58329999999999949px;line-height:1.25;font-family:Phosphate;-inkscape-font-specification:'Phosphate, Normal';stroke-width:0.264583;fill:#ffffff;stroke:#ffffff;"
       x="94.308434"
       y="98.176025"
       id="text1544"><tspan
         sodipodi:role="line"
         id="tspan1542"
         x="94.308434"
         y="98.176025"
         style="stroke-width:0.264583;fill:#ffffff;stroke:#ffffff;" /></text>
    <text
       xml:space="preserve"
       style="font-size:13.6881px;line-height:1.25;font-family:Phosphate;-inkscape-font-specification:'Phosphate, Normal';white-space:pre;inline-size:6.04358;fill:#ffffff;stroke:#ffffff;stroke-width:0.342203"
       x="100.39809"
       y="91.569138"
       id="text1564"
       transform="matrix(0.32406795,0,0,0.19478822,35.536722,49.156699)"><tspan
         x="100.39809"
         y="91.569138"><tspan
           style="fill:#ffffff;stroke:#ffffff;stroke-width:0.342203">i</tspan></tspan></text>
    <text
       xml:space="preserve"
       style="font-size:10.5833px;line-height:1.25;font-family:Phosphate;-inkscape-font-specification:'Phosphate, Normal';stroke-width:0.264583"
       x="121.1768"
       y="94.65892"
       id="text1568"><tspan
         sodipodi:role="line"
         id="tspan1566"
         x="121.1768"
         y="94.65892"
         style="stroke-width:0.264583" /></text>
    <text
       xml:space="preserve"
       style="font-size:13.6881px;line-height:1.25;font-family:Phosphate;-inkscape-font-specification:'Phosphate, Normal';white-space:pre;inline-size:6.04358;fill:#ffffff;stroke:#ffffff;stroke-width:0.342203"
       x="100.39809"
       y="91.569138"
       id="text1564-0"
       transform="matrix(0.32406794,0,0,0.19478822,35.458454,50.266604)"><tspan
         x="100.39809"
         y="91.569138"><tspan
           style="fill:#ffffff;stroke:#ffffff;stroke-width:0.342203">i</tspan></tspan></text>
    <text
       xml:space="preserve"
       style="font-size:13.6881px;line-height:1.25;font-family:Phosphate;-inkscape-font-specification:'Phosphate, Normal';white-space:pre;inline-size:6.04358;fill:#ffffff;stroke:#ffffff;stroke-width:0.342203"
       x="100.39809"
       y="91.569138"
       id="text1564-09"
       transform="matrix(0.32406794,0,0,0.19478822,35.862056,52.111642)"><tspan
         x="100.39809"
         y="91.569138"><tspan
           style="fill:#ffffff;stroke:#ffffff;stroke-width:0.342203">i</tspan></tspan></text>
    <text
       xml:space="preserve"
       style="font-size:13.6881px;line-height:1.25;font-family:Phosphate;-inkscape-font-specification:'Phosphate, Normal';white-space:pre;inline-size:6.04358;fill:#ffffff;stroke:#ffffff;stroke-width:0.342203"
       x="100.39809"
       y="91.569138"
       id="text1564-0-3"
       transform="matrix(1.5965939,0,0,0.18389581,-91.650283,54.904364)"><tspan
         x="100.39809"
         y="91.569138"><tspan
           style="fill:#ffffff;stroke:#ffffff;stroke-width:0.342203">i</tspan></tspan></text>
    <text
       xml:space="preserve"
       style="font-size:13.6881px;line-height:1.25;font-family:Phosphate;-inkscape-font-specification:'Phosphate, Normal';white-space:pre;inline-size:6.04358;fill:#ffffff;stroke:#ffffff;stroke-width:0.342203"
       x="100.39809"
       y="91.569138"
       id="text1564-0-7"
       transform="matrix(0.32406794,0,0,0.19478822,38.571955,53.783707)"><tspan
         x="100.39809"
         y="91.569138"><tspan
           style="fill:#ffffff;stroke:#ffffff;stroke-width:0.342203">i</tspan></tspan></text>
    <text
       xml:space="preserve"
       style="font-size:13.6881px;line-height:1.25;font-family:Phosphate;-inkscape-font-specification:'Phosphate, Normal';white-space:pre;inline-size:6.04358;fill:#ffffff;stroke:#ffffff;stroke-width:0.342203"
       x="100.39809"
       y="91.569138"
       id="text1564-0-3-5"
       transform="matrix(1.5965939,0,0,0.18389581,-82.713379,48.216103)"><tspan
         x="100.39809"
         y="91.569138"><tspan
           style="fill:#ffffff;stroke:#ffffff;stroke-width:0.342203">i</tspan></tspan></text>
    <text
       xml:space="preserve"
       style="font-size:13.6881px;line-height:1.25;font-family:Phosphate;-inkscape-font-specification:'Phosphate, Normal';white-space:pre;inline-size:6.04358;fill:#ffffff;stroke:#ffffff;stroke-width:0.342203"
       x="100.39809"
       y="91.569138"
       id="text1564-0-3-7"
       transform="matrix(1.5965939,0,0,0.18389581,-83.116981,54.78905)"><tspan
         x="100.39809"
         y="91.569138"><tspan
           style="fill:#ffffff;stroke:#ffffff;stroke-width:0.342203">i</tspan></tspan></text>
    <text
       xml:space="preserve"
       style="font-size:13.6881px;line-height:1.25;font-family:Phosphate;-inkscape-font-specification:'Phosphate, Normal';white-space:pre;inline-size:6.04358;fill:#ffffff;stroke:#ffffff;stroke-width:0.342203"
       x="100.39809"
       y="91.569138"
       id="text1564-0-3-2"
       transform="matrix(1.5965939,0,0,0.18389581,-71.816125,54.846707)"><tspan
         x="100.39809"
         y="91.569138"><tspan
           style="fill:#ffffff;stroke:#ffffff;stroke-width:0.342203">i</tspan></tspan></text>
    <text
       xml:space="preserve"
       style="font-size:13.6881px;line-height:1.25;font-family:Phosphate;-inkscape-font-specification:'Phosphate, Normal';white-space:pre;inline-size:6.04358;fill:#ffffff;stroke:#ffffff;stroke-width:0.342203"
       x="100.39809"
       y="91.569138"
       id="text1564-0-3-9"
       transform="matrix(1.5965939,0,0,0.18389581,-71.354866,48.158446)"><tspan
         x="100.39809"
         y="91.569138"><tspan
           style="fill:#ffffff;stroke:#ffffff;stroke-width:0.342203">i</tspan></tspan></text>
    <text
       xml:space="preserve"
       style="font-size:13.6881px;line-height:1.25;font-family:Phosphate;-inkscape-font-specification:'Phosphate, Normal';white-space:pre;inline-size:6.04358;fill:#ffffff;stroke:#ffffff;stroke-width:0.342203"
       x="100.39809"
       y="91.569138"
       id="text1564-0-3-75"
       transform="matrix(1.0848005,0,0,0.18730979,10.874095,47.51547)"><tspan
         x="100.39809"
         y="91.569138"><tspan
           style="fill:#ffffff;stroke:#ffffff;stroke-width:0.342203">i</tspan></tspan></text>
    <text
       xml:space="preserve"
       style="font-size:13.6881px;line-height:1.25;font-family:Phosphate;-inkscape-font-specification:'Phosphate, Normal';white-space:pre;inline-size:6.04358;fill:#ffffff;stroke:#ffffff;stroke-width:0.342203"
       x="100.39809"
       y="91.569138"
       id="text1564-0-3-75-6"
       transform="matrix(0.65614977,0,0,0.94514164,42.122526,-15.074919)"><tspan
         x="100.39809"
         y="91.569138"><tspan
           style="fill:#ffffff;stroke:#ffffff;stroke-width:0.342203">i</tspan></tspan></text>
    <text
       xml:space="preserve"
       style="font-size:13.6881px;line-height:1.25;font-family:Phosphate;-inkscape-font-specification:'Phosphate, Normal';white-space:pre;inline-size:6.04358;fill:#ffffff;stroke:#ffffff;stroke-width:0.342203"
       x="100.39809"
       y="91.569138"
       id="text1564-0-3-75-6-5"
       transform="matrix(0.65614976,0,0,0.94514165,32.464909,-14.728976)"><tspan
         x="100.39809"
         y="91.569138"><tspan
           style="fill:#ffffff;stroke:#ffffff;stroke-width:0.342203">i</tspan></tspan></text>
    <text
       xml:space="preserve"
       style="font-size:13.6881px;line-height:1.25;font-family:Phosphate;-inkscape-font-specification:'Phosphate, Normal';white-space:pre;inline-size:6.04358;fill:#ffffff;stroke:#ffffff;stroke-width:0.342203"
       x="100.39809"
       y="91.569138"
       id="text1564-0-3-75-6-3"
       transform="matrix(0.65614976,0,0,0.94514165,42.151357,-14.728976)"><tspan
         x="100.39809"
         y="91.569138"><tspan
           style="fill:#ffffff;stroke:#ffffff;stroke-width:0.342203">i</tspan></tspan></text>
    <text
       xml:space="preserve"
       style="font-size:13.6881px;line-height:1.25;font-family:Phosphate;-inkscape-font-specification:'Phosphate, Normal';white-space:pre;inline-size:6.04358;fill:#ffffff;stroke:#ffffff;stroke-width:0.342203"
       x="100.39809"
       y="91.569138"
       id="text1564-0-3-75-6-0"
       transform="matrix(0.65614976,0,0,0.94514165,46.187377,-15.30555)"><tspan
         x="100.39809"
         y="91.569138"><tspan
           style="fill:#ffffff;stroke:#ffffff;stroke-width:0.342203">i</tspan></tspan></text>
    <text
       xml:space="preserve"
       style="font-size:13.6881px;line-height:1.25;font-family:Phosphate;-inkscape-font-specification:'Phosphate, Normal';white-space:pre;inline-size:6.04358;fill:#ffffff;stroke:#ffffff;stroke-width:0.342203"
       x="100.39809"
       y="91.569138"
       id="text1564-0-3-75-6-4"
       transform="matrix(0.45155979,0,0,0.83792918,48.634323,-5.343389)"><tspan
         x="100.39809"
         y="91.569138"><tspan
           style="fill:#ffffff;stroke:#ffffff;stroke-width:0.342203">i</tspan></tspan></text>
    <text
       xml:space="preserve"
       style="font-size:13.6881px;line-height:1.25;font-family:Phosphate;-inkscape-font-specification:'Phosphate, Normal';white-space:pre;inline-size:6.04358;fill:#ffffff;stroke:#ffffff;stroke-width:0.342203"
       x="100.39809"
       y="91.569138"
       id="text1564-0-3-75-6-8"
       transform="matrix(0.34886001,0,0,0.38001379,59.989306,34.900755)"><tspan
         x="100.39809"
         y="91.569138"><tspan
           style="fill:#ffffff;stroke:#ffffff;stroke-width:0.342203">i</tspan></tspan></text>
    <text
       xml:space="preserve"
       style="font-size:13.6881px;line-height:1.25;font-family:Phosphate;-inkscape-font-specification:'Phosphate, Normal';white-space:pre;inline-size:6.04358;fill:#ffffff;stroke:#ffffff;stroke-width:0.342203"
       x="100.39809"
       y="91.569138"
       id="text1564-0-3-75-6-8-5"
       transform="matrix(0.34886,0,0,0.38001379,52.7533,33.113376)"><tspan
         x="100.39809"
         y="91.569138"><tspan
           style="fill:#ffffff;stroke:#ffffff;stroke-width:0.342203">i</tspan></tspan></text>
    <text
       xml:space="preserve"
       style="font-size:13.6881px;line-height:1.25;font-family:Phosphate;-inkscape-font-specification:'Phosphate, Normal';white-space:pre;inline-size:6.04358;fill:#ffffff;stroke:#ffffff;stroke-width:0.342203"
       x="100.39809"
       y="91.569138"
       id="text1564-0-3-75-6-8-55"
       transform="matrix(0.34232847,0,0,0.52305002,59.822261,21.677634)"><tspan
         x="100.39809"
         y="91.569138"><tspan
           style="fill:#ffffff;stroke:#ffffff;stroke-width:0.342203">i</tspan></tspan></text>
    <text
       xml:space="preserve"
       style="font-size:13.6881px;line-height:1.25;font-family:Phosphate;-inkscape-font-specification:'Phosphate, Normal';white-space:pre;inline-size:6.04358;fill:#ffffff;stroke:#ffffff;stroke-width:0.342203"
       x="100.39809"
       y="91.569138"
       id="text1564-0-3-75-6-8-4"
       transform="matrix(0.42593348,0,0,0.2735097,45.839281,40.967067)"><tspan
         x="100.39809"
         y="91.569138"><tspan
           style="fill:#ffffff;stroke:#ffffff;stroke-width:0.342203">i</tspan></tspan></text>
    <text
       xml:space="preserve"
       style="font-size:13.6881px;line-height:1.25;font-family:Phosphate;-inkscape-font-specification:'Phosphate, Normal';white-space:pre;inline-size:6.04358;fill:#ffffff;stroke:#ffffff;stroke-width:0.342203"
       x="100.39809"
       y="91.569138"
       id="text1564-0-3-75-6-8-2"
       transform="matrix(0.39866399,0,0,0.44109522,48.257565,30.508937)"><tspan
         x="100.39809"
         y="91.569138"><tspan
           style="fill:#ffffff;stroke:#ffffff;stroke-width:0.342203">i</tspan></tspan></text>
    <text
       xml:space="preserve"
       style="font-size:13.6881px;line-height:1.25;font-family:Phosphate;-inkscape-font-specification:'Phosphate, Normal';white-space:pre;inline-size:6.04358;fill:#ffffff;stroke:#ffffff;stroke-width:0.342203"
       x="100.39809"
       y="91.569138"
       id="text1564-0-3-75-6-8-2-1"
       transform="matrix(0.44032225,0,0,0.68255706,57.770873,7.6845444)"><tspan
         x="100.39809"
         y="91.569138"><tspan
           style="fill:#ffffff;stroke:#ffffff;stroke-width:0.342203">i</tspan></tspan></text>
    <text
       xml:space="preserve"
       style="font-size:13.6881px;line-height:1.25;font-family:Phosphate;-inkscape-font-specification:'Phosphate, Normal';white-space:pre;inline-size:6.04358;fill:#ffffff;stroke:#ffffff;stroke-width:0.342203"
       x="100.39809"
       y="91.569138"
       id="text1564-0-3-75-6-8-2-1-9"
       transform="matrix(0.4569096,0,0,0.34715722,55.005264,37.125183)"><tspan
         x="100.39809"
         y="91.569138"><tspan
           style="fill:#ffffff;stroke:#ffffff;stroke-width:0.342203">i</tspan></tspan></text>
    <text
       xml:space="preserve"
       style="font-size:13.6881px;line-height:1.25;font-family:Phosphate;-inkscape-font-specification:'Phosphate, Normal';white-space:pre;inline-size:6.04358;fill:#ffffff;stroke:#ffffff;stroke-width:0.342203"
       x="100.39809"
       y="91.569138"
       id="text1564-0-3-75-6-8-2-1-9-2"
       transform="matrix(0.2731038,-0.12637376,0.07885292,0.25267295,69.392519,61.575921)"><tspan
         x="100.39809"
         y="91.569138"><tspan
           style="fill:#ffffff;stroke:#ffffff;stroke-width:0.342203">i</tspan></tspan></text>
    <text
       xml:space="preserve"
       style="font-size:13.6881px;line-height:1.25;font-family:Phosphate;-inkscape-font-specification:'Phosphate, Normal';white-space:pre;inline-size:6.04358;fill:#ffffff;stroke:#ffffff;stroke-width:0.342203"
       x="100.39809"
       y="91.569138"
       id="text1564-0-3-75-4"
       transform="matrix(0.9093034,0,0,0.29835607,27.551963,39.122446)"><tspan
         x="100.39809"
         y="91.569138"><tspan
           style="fill:#ffffff;stroke:#ffffff;stroke-width:0.342203">i</tspan></tspan></text>
    <text
       xml:space="preserve"
       style="font-size:13.6881px;line-height:1.25;font-family:Phosphate;-inkscape-font-specification:'Phosphate, Normal';white-space:pre;inline-size:6.04358;fill:#ffffff;stroke:#ffffff;stroke-width:0.342203"
       x="100.39809"
       y="91.569138"
       id="text1564-0-3-75-4-5"
       transform="matrix(0.59444859,0,0,0.42533557,61.818749,33.26387)"><tspan
         x="100.39809"
         y="91.569138"><tspan
           style="fill:#ffffff;stroke:#ffffff;stroke-width:0.342203">i</tspan></tspan></text>
    <text
       xml:space="preserve"
       style="font-size:13.6881px;line-height:1.25;font-family:Phosphate;-inkscape-font-specification:'Phosphate, Normal';white-space:pre;inline-size:6.04358;fill:#ffffff;stroke:#ffffff;stroke-width:0.342203"
       x="100.39809"
       y="91.569138"
       id="text1564-0-3-75-4-5-8"
       transform="matrix(0.55027876,0,0,0.09461011,64.757233,63.191509)"><tspan
         x="100.39809"
         y="91.569138"><tspan
           style="fill:#ffffff;stroke:#ffffff;stroke-width:0.342203">i</tspan></tspan></text>
    <text
       xml:space="preserve"
       style="font-size:13.6881px;line-height:1.25;font-family:Phosphate;-inkscape-font-specification:'Phosphate, Normal';white-space:pre;inline-size:6.04358;fill:#ffffff;stroke:#ffffff;stroke-width:0.342203"
       x="100.39809"
       y="91.569138"
       id="text1564-0-3-75-4-5-8-6"
       transform="matrix(0.51653155,0,0,0.55049941,24.624751,19.37591)"><tspan
         x="100.39809"
         y="91.569138"><tspan
           style="fill:#ffffff;stroke:#ffffff;stroke-width:0.342203">i</tspan></tspan></text>
    <text
       xml:space="preserve"
       style="font-size:13.6881px;line-height:1.25;font-family:Phosphate;-inkscape-font-specification:'Phosphate, Normal';white-space:pre;inline-size:6.04358;fill:#ffffff;stroke:#ffffff;stroke-width:0.342203"
       x="100.39809"
       y="91.569138"
       id="text1564-0-3-75-4-5-8-6-2"
       transform="matrix(0.51143861,0,0,0.65613196,31.315738,10.444897)"><tspan
         x="100.39809"
         y="91.569138"><tspan
           style="fill:#ffffff;stroke:#ffffff;stroke-width:0.342203">i</tspan></tspan></text>
    <text
       xml:space="preserve"
       style="font-size:13.6881px;line-height:1.25;font-family:Phosphate;-inkscape-font-specification:'Phosphate, Normal';white-space:pre;inline-size:6.04358;fill:#ffffff;stroke:#ffffff;stroke-width:0.342203"
       x="100.39809"
       y="91.569138"
       id="text1564-0-3-75-4-5-8-6-2-5"
       transform="matrix(1.5599732,0,0,0.18411795,-87.553483,48.110289)"><tspan
         x="100.39809"
         y="91.569138"><tspan
           style="fill:#ffffff;stroke:#ffffff;stroke-width:0.342203">i</tspan></tspan></text>
  </g>
</svg>
