<?xml version="1.0" encoding="UTF-8" standalone="no"?>
<svg
   xmlns:dc="http://purl.org/dc/elements/1.1/"
   xmlns:cc="http://creativecommons.org/ns#"
   xmlns:rdf="http://www.w3.org/1999/02/22-rdf-syntax-ns#"
   xmlns:svg="http://www.w3.org/2000/svg"
   xmlns="http://www.w3.org/2000/svg"
   xmlns:xlink="http://www.w3.org/1999/xlink"
   xmlns:sodipodi="http://sodipodi.sourceforge.net/DTD/sodipodi-0.dtd"
   xmlns:inkscape="http://www.inkscape.org/namespaces/inkscape"
   width="130"
   height="147"
   viewBox="0 0 130 147"
   version="1.1"
   id="svg856"
   sodipodi:docname="gold-medal.svg"
   inkscape:version="1.0.1 (c497b03c, 2020-09-10)">
  <metadata
     id="metadata860">
    <rdf:RDF>
      <cc:Work
         rdf:about="">
        <dc:format>image/svg+xml</dc:format>
        <dc:type
           rdf:resource="http://purl.org/dc/dcmitype/StillImage" />
        <dc:title></dc:title>
      </cc:Work>
    </rdf:RDF>
  </metadata>
  <sodipodi:namedview
     pagecolor="#ffffff"
     bordercolor="#666666"
     borderopacity="1"
     objecttolerance="10"
     gridtolerance="10"
     guidetolerance="10"
     inkscape:pageopacity="0"
     inkscape:pageshadow="2"
     inkscape:window-width="1589"
     inkscape:window-height="1011"
     id="namedview858"
     showgrid="false"
     fit-margin-top="5"
     fit-margin-bottom="5"
     fit-margin-right="5"
     fit-margin-left="5"
     lock-margins="true"
     inkscape:zoom="5.462585"
     inkscape:cx="70"
     inkscape:cy="78.5"
     inkscape:window-x="1565"
     inkscape:window-y="617"
     inkscape:window-maximized="0"
     inkscape:current-layer="g854" />
  <!-- Generator: Sketch 46.2 (44496) - http://www.bohemiancoding.com/sketch -->
  <desc
     id="desc833">Created with Sketch.</desc>
  <defs
     id="defs836">
    <polygon
       id="path-1"
       points="0,0.39666667 0,4.3958333 119.21723,4.3958333 119.21723,0.39666667 " />
  </defs>
  <g
     id="g854"
     stroke="none"
     stroke-width="1"
     fill="none"
     fill-rule="evenodd"
     transform="translate(5,5)">
    <g
       id="Desktop-Home-Copy-5"
       transform="translate(-660,-43)">
      <g
         id="Group-2"
         transform="translate(660,43)">
        <g
           id="Page-1">
          <path
             d="m 60.003077,86.685096 c 12.8907,0 23.307272,10.417069 23.307272,23.319504 0,12.90244 -10.416572,23.31644 -23.307272,23.31644 -12.8907,0 -23.307271,-10.414 -23.307271,-23.31644 0,-12.902435 10.416571,-23.319504 23.307271,-23.319504 m 0,-3.685096 C 45.109072,83 33,95.116939 33,110.0046 33,124.8892 45.109072,137 60.003077,137 74.897082,137 87,124.8892 87,110.0046 87,95.116939 74.897082,83 60.003077,83"
             id="Fill-1"
             fill="#ffffff" />
          <path
             d="m 60,96.780347 c 7.863341,0 14.202705,6.343673 14.202705,14.219653 0,7.87599 -6.339364,14.21335 -14.202705,14.21335 -7.863341,0 -14.209029,-6.33736 -14.209029,-14.21335 0,-7.87598 6.345688,-14.219653 14.209029,-14.219653 M 60,93 c -9.921658,0 -18,8.08408 -18,18 0,9.91277 8.078342,18 18,18 9.921658,0 18,-8.08723 18,-18 0,-9.91592 -8.078342,-18 -18,-18"
             id="Fill-3"
             fill="#ffffff" />
          <path
             d="M 44.844529,72.012332 H 43 v 1.837537 14.210081 c 0,2.469575 3.682931,2.469575 3.682931,0 V 75.696656 h 26.641498 v 12.381792 c -0.09805,2.562069 3.771787,2.562069 3.673739,0 V 73.849869 c 0,-1.020511 -0.821153,-1.846786 -1.835338,-1.849869 z"
             id="Fill-5"
             fill="#ffffff" />
          <path
             d="m 118.08929,0 c -0.47381,0.01245224 -0.92904,0.20857496 -1.26349,0.5478984 L 59.553986,58.292031 c -0.730839,0.725343 -0.74013,1.905193 -0.01858,2.639875 0.721549,0.734681 1.901421,0.744021 2.629164,0.01557 0.0062,-0.0062 0.01239,-0.01245 0.01858,-0.01868 L 116.28077,6.3911103 V 28.979467 L 74.799425,73.81997 c -0.718452,0.734682 -0.712259,1.917645 0.01858,2.642987 0.733936,0.72223 1.910712,0.716004 2.629165,-0.01868 0.02787,-0.02802 0.05264,-0.05603 0.07432,-0.08405 l 41.98302,-45.37595 C 119.82348,30.638728 120,30.184221 120,29.714149 V 1.8678354 C 120,0.83429984 119.17006,0 118.14193,0 Z"
             id="Fill-7"
             fill="#ffffff" />
          <path
             d="M 3.7514503,6.3947357 70.61535,73.265409 H 45.036145 L 3.7514503,28.995397 Z M 1.8491745,1.439057e-4 C 0.82463186,0.01571768 0,0.84735724 0,1.8689968 V 29.73048 c 0,0.473442 0.17804551,0.928196 0.49977689,1.270819 L 42.846497,76.405082 C 43.199464,76.785082 43.699241,77 44.21776,77 H 75.125837 C 76.15975,77 77,76.165246 77,75.131147 77,74.639016 76.806336,74.162458 76.453369,73.813606 L 3.2016957,0.54834077 C 2.842481,0.19014395 2.3551986,-0.0060856 1.8491745,1.439057e-4 Z"
             id="Fill-9"
             fill="#ffffff" />
          <g
             id="Group-13">
            <mask
               id="mask-2"
               fill="#ffffff">
              <use
                 xlink:href="#path-1"
                 id="use843"
                 x="0"
                 y="0"
                 width="100%"
                 height="100%" />
            </mask>
            <g
               id="Clip-12" />
            <path
               d="M 1.9406777,0.39666667 C 0.91009157,0.35333333 0.04141026,1.2133333 9.3406593e-4,2.32 -0.03954212,3.4233333 0.76686813,4.3533333 1.7974542,4.3933333 c 0.046703,0.00333 0.093407,0.00333 0.1432235,0 H 117.27603 c 1.03058,0.043333 1.89926,-0.8166666 1.93974,-1.92 C 119.25625,1.37 118.45295,0.44 117.42236,0.39666667 c -0.0498,0 -0.0965,0 -0.14633,0 z"
               id="Fill-11"
               fill="#ffffff"
               mask="url(#mask-2)" />
          </g>
          <path
             d="m 21.930555,20.00196 c -1.024933,-0.05416 -1.888849,1.020646 -1.929103,2.403725 -0.04026,1.378913 0.761732,2.5412 1.786665,2.591191 0.04645,0.0042 0.09289,0.0042 0.142438,0 H 96.06944 c 1.024933,0.05416 1.891946,-1.020646 1.929103,-2.39956 0.04025,-1.378913 -0.758636,-2.541199 -1.783569,-2.595356 -0.04645,0 -0.09599,0 -0.145534,0 z"
             id="Fill-14"
             fill="#ffffff" />
        </g>
        <polygon
           id="Star"
           fill="#f4d188"
           points="56.17105,113.57295 52.228067,109.72949 57.677136,108.93769 60.114033,104 62.550931,108.93769 68,109.72949 64.057017,113.57295 64.987829,119 60.114033,116.43769 55.240238,119 " />
      </g>
    </g>
  </g>
</svg>
