<?xml version="1.0" encoding="UTF-8" standalone="no"?>
<svg
   xmlns:dc="http://purl.org/dc/elements/1.1/"
   xmlns:cc="http://creativecommons.org/ns#"
   xmlns:rdf="http://www.w3.org/1999/02/22-rdf-syntax-ns#"
   xmlns:svg="http://www.w3.org/2000/svg"
   xmlns="http://www.w3.org/2000/svg"
   xmlns:sodipodi="http://sodipodi.sourceforge.net/DTD/sodipodi-0.dtd"
   xmlns:inkscape="http://www.inkscape.org/namespaces/inkscape"
   inkscape:export-ydpi="96"
   inkscape:export-xdpi="96"
   inkscape:export-filename="/Users/briantacderan/Projects/tacderan-code/app/assets/images/my-logo.png"
   width="512mm"
   height="620mm"
   viewBox="0 0 512 620"
   version="1.1"
   id="svg152"
   inkscape:version="1.0.1 (c497b03c, 2020-09-10)"
   sodipodi:docname="logo-load.svg">
  <defs
     id="defs146">
    <inkscape:perspective />
    <style
       id="style3725"><![CDATA[
.turtle-load {
  baseline-shift:baseline;
  clip-rule:nonzero;
  color:#000000;
  color-interpolation:sRGB;
  color-interpolation-filters:linearRGB;
  color-rendering:auto;
  direction:ltr;
  display:inline;
  dominant-baseline:auto;
  enable-background:accumulate;
  fill:#000000;
  fill-opacity:1;
  fill-rule:nonzero;
  font-family:sans-serif;
  font-feature-settings:normal;
  font-size:medium;
  font-stretch:normal;
  font-style:normal;
  font-variant:normal;
  font-variant-alternates:normal;
  font-variant-caps:normal;
  font-variant-east-asian:normal;
  font-variant-ligatures:normal;
  font-variant-numeric:normal;
  font-variant-position:normal;
  font-variation-settings:normal;
  font-weight:normal;
  image-rendering:auto;
  inline-size:0;
  isolation:auto;
  letter-spacing:normal;
  line-height:normal;
  mix-blend-mode:normal;
  opacity:1;
  overflow:visible;
  paint-order:stroke fill markers;
  shape-margin:0;
  shape-padding:0;
  shape-rendering:auto;
  solid-color:#000000;
  solid-opacity:1;
  stop-color:#000000;
  stop-opacity:1;
  stroke:none;
  stroke-dasharray:none;
  stroke-dashoffset:0;
  stroke-linecap:butt;
  stroke-linejoin:miter;
  stroke-miterlimit:4;
  stroke-opacity:1;
  stroke-width:2;
  text-align:start;
  text-anchor:start;
  text-decoration:none;
  text-decoration-color:#000000;
  text-decoration-line:none;
  text-decoration-style:solid;
  text-indent:0;
  text-orientation:mixed;
  text-rendering:auto;
  text-transform:none;
  vector-effect:none;
  visibility:visible;
  white-space:normal;
  word-spacing:normal;
  writing-mode:lr-tb;
}
]]></style>
  </defs>
  <sodipodi:namedview
     id="base"
     pagecolor="#ffffff"
     bordercolor="#666666"
     borderopacity="1.0"
     inkscape:pageopacity="0.0"
     inkscape:pageshadow="2"
     inkscape:zoom="0.59748715"
     inkscape:cx="628.34234"
     inkscape:cy="1552.2198"
     inkscape:document-units="mm"
     inkscape:current-layer="layer1"
     inkscape:document-rotation="0"
     showgrid="false"
     inkscape:window-width="1792"
     inkscape:window-height="1075"
     inkscape:window-x="0"
     inkscape:window-y="23"
     inkscape:window-maximized="0"
     inkscape:snap-page="true" />
  <metadata
     id="metadata149">
    <rdf:RDF>
      <cc:Work
         rdf:about="">
        <dc:format>image/svg+xml</dc:format>
        <dc:type
           rdf:resource="http://purl.org/dc/dcmitype/StillImage" />
        <dc:title></dc:title>
      </cc:Work>
    </rdf:RDF>
  </metadata>
  <g
     inkscape:label="Layer 1"
     inkscape:groupmode="layer"
     id="layer1"
     style="display:inline">
    <path
       class="turtle-load"
       d="m 266.70783,486.79732 c 0,0 -5.2605,-1.4175 -10.84122,-3.17722 -3.91472,-1.48698 -7.66612,-2.96074 -13.10363,-6.15923 -15.7872,-10.50857 -33.21272,-26.58933 -32.85148,-27.80449 -0.0709,-0.20951 -10.94524,-9.37024 -10.96817,-15.53544 -0.9769,-8.6374 -1.16134,-15.63122 -1.33988,-24.94517 -0.19854,-15.06373 0.29562,-14.39168 0.29409,-23.09049 0,-41.6567 -1.06801,-44.15398 1.39641,-46.52792 4.57759,-2.37403 -2.61145,-1.00047 28.03386,-1.49936 17.17649,-0.0536 25.06027,-1.54594 28.38457,1.54051 2.75794,2.56054 0.68338,8.76388 1.42202,17.09208 -0.45076,19.50517 1.25218,15.48476 -10.22818,23.2135 11.42293,10.05101 8.69837,8.6125 8.90408,29.16401 -0.0264,8.91057 0.15061,17.72631 0.23185,26.06054 0.25387,27.17661 0.14954,43.10996 0.14954,43.10996 l 10.78227,-7.62473 c -0.0138,-9.52955 0.047,-1.48449 -0.0842,-70.25863 v 0 c 0.0946,-17.86262 0.18021,-29.7859 0.35347,-43.95346 -0.17468,-30.1903 3.63142,-25.66223 -11.51705,-26.34683 -7.55403,0.31585 -17.10862,0.32498 -22.96348,0.26138 -0.16159,-20.21629 -1.37018,-18.87985 15.36114,-19.32035 l 34.70806,-0.19268 29.24894,0.22735 c 3.2095,0.696 4.96002,3.39208 5.03381,7.48861 0.087,4.82971 -1.10648,10.38443 -1.10648,10.38443 -1.36579,0.61065 -10.54761,-0.30155 -16.02189,0.2621 -20.81496,0.88971 -15.6293,-4.64649 -16.27,37.95272 -0.16329,37.2753 -0.4263,4.67588 -0.14575,36.76439 -0.56797,16.03898 0.16328,36.30184 0.17236,47.6451 -0.24874,4.01937 0.8896,13.15021 -2.4327,16.31333 -1.8085,1.72185 -6.44664,5.43793 -14.44316,10.85904 l 0.0661,2.73609 c 28.44811,-18.55818 48.35387,-43.42873 65.28165,-69.13226 26.0824,-37.83046 29.41902,-79.8164 18.45754,-118.28001 -11.37178,-38.16842 -23.60857,-51.37938 -51.83287,-66.85234 -11.92661,-6.53833 -19.52602,-7.80728 -26.13903,-2.06109 -9.04486,7.85928 -24.53049,6.44069 -36.70882,-0.0687 -5.32453,-2.84608 -10.41843,-5.53118 -20.69433,0.98855 -26.68342,16.83102 -37.88218,17.14673 -56.09214,66.25288 -7.25122,19.5541 -18.22131,60.20294 18.00249,124.66569 2.50787,5.11156 41.97918,58.49736 78.65861,70.61177 l -0.18146,14.00183 c -3.25029,-0.78625 -1.53988,-0.56588 -7.25818,-2.68663 v -2.4e-4 c -8.65671,-4.45552 -21.83586,-13.04235 -31.22243,-20.34284 -8.04497,-6.25705 -8.04497,-6.25705 -12.19181,-0.08 -5.41077,8.05959 -12.10497,13.67069 -18.48797,15.49672 -6.63252,1.89735 -9.02091,1.8371 -16.23736,-0.40982 -3.31323,-1.03154 -7.87136,-2.33807 -10.12911,-2.90331 -10.31763,-2.58323 -18.8563,-11.73804 -18.87564,-22.41898 -0.0148,-9.44901 1.17263,-15.07125 15.48943,-31.8395 8.3712,-9.80455 14.6733,-8.03451 6.96437,-18.96315 -25.91961,-36.7452 -36.06723,-90.04542 -16.08405,-132.62153 1.5937,-3.39554 1.49816,-5.10961 0.70117,-5.18011 -9.40886,-0.83238 -17.92153,3.99834 -36.80101,20.88352 -5.79817,5.18572 -13.296799,11.3267 -16.663619,13.64654 -16.555407,11.40746 -42.573232,19.96834 -42.573232,14.00821 0,-7.3844 11.721068,-37.18133 22.279931,-51.53176 7.756479,-10.54166 25.79732,-31.89316 36.06572,-39.25936 23.41044,-15.33498 48.90671,-21.61942 76.21581,-17.15985 14.0602,3.00667 11.30387,-0.97653 22.92204,-7.52475 10.76139,-5.56646 18.86591,-3.81897 16.28142,-9.74318 -8.97156,-17.1684 -10.98197,-42.15785 -3.42891,-57.4464 2.392,-5.00744 -1.50698,-5.15988 0.79714,-11.03907 1.50171,-0.90664 11.27074,-8.37658 15.71587,-12.36618 10.09247,-9.05824 11.26982,-11.07856 15.55715,-11.07856 4.17488,0 4.9128,0.14629 16.46598,10.71264 4.46952,4.08774 14.12091,11.2652 15.58758,12.42183 3.72356,3.50439 -0.59295,8.86902 1.52181,12.75296 8.13068,14.49935 5.74207,38.71395 -4.18386,56.32058 0.65812,6.67504 11.30463,6.19311 17.69872,8.98589 9.71291,4.24244 9.13492,12.92516 22.24499,7.05299 31.47025,-8.18402 66.6514,4.73198 94.59555,36.35224 12.56418,14.21706 20.20247,27.00152 28.66505,43.34898 6.41135,12.38501 9.61579,25.5681 9.61579,29.201 0,4.95213 -18.83241,-0.15266 -35.49277,-9.62141 -4.33531,-2.46383 -12.40314,-8.39676 -17.92857,-13.18429 -23.03896,-19.96225 -30.92565,-25.22628 -38.44597,-25.661 -5.4553,-0.31549 -5.54022,-0.24714 -4.0301,3.23439 13.59202,25.368 11.39219,61.22227 4.92975,86.94216 -3.83422,18.88671 -13.14111,36.58127 -22.47708,51.19744 -3.03604,4.7532 1.7584,4.7532 12.43967,17.46632 12.22738,14.55329 11.93552,20.68348 11.97628,28.89219 0.0619,12.44708 -8.81113,21.45994 -21.69448,24.07058 -2.32998,0.47214 -6.26949,1.58641 -8.75442,2.4762 -11.75664,4.20961 -25.87209,-2.95768 -34.85095,-17.69595 -2.52001,-4.13644 -2.52001,-4.13644 -7.67985,0.0524 -12.06964,8.55045 -7.91924,7.54164 -28.15096,20.62729 z m -27.07731,-79.40107 c 0.11765,-21.9356 2.29786,-20.86802 -13.71024,-13.21962 -13.75063,6.56984 -11.07105,1.77497 -11.27061,21.07335 0.35119,18.28742 -5.05072,14.80582 16.09308,32.73065 11.1733,8.31839 9.27907,10.34215 8.88777,-16.21817 -0.12673,-8.60955 -0.12821,-0.43839 0,-24.36621 z m 1.74334,-43.34381 c 0.49817,-11.22905 2.28085,-9.68329 -12.95275,-9.48877 -16.87664,0.21526 -13.01885,-3.02292 -13.4816,12.77039 0.36655,20.11498 -3.7211,15.87538 13.07037,9.84433 13.39211,-6.49394 13.5299,-5.67737 13.36398,-13.12595 z"
       style="text-decoration:none;text-decoration-line:none;fill:none;stroke:#000000;stroke-width:2.5;stroke-miterlimit:4;stroke-dasharray:none;stroke-opacity:1"
       sodipodi:nodetypes="cccccccccsccccccccccccccscccccsccccssccscccccssssccssscscssccccccssscccccssssscccsssscsccccsccccccccc"
       id="path837" />
  </g>
</svg>
