<?xml version="1.0" encoding="UTF-8" standalone="no"?>
<svg
   xmlns:dc="http://purl.org/dc/elements/1.1/"
   xmlns:cc="http://creativecommons.org/ns#"
   xmlns:rdf="http://www.w3.org/1999/02/22-rdf-syntax-ns#"
   xmlns:svg="http://www.w3.org/2000/svg"
   xmlns="http://www.w3.org/2000/svg"
   xmlns:sodipodi="http://sodipodi.sourceforge.net/DTD/sodipodi-0.dtd"
   xmlns:inkscape="http://www.inkscape.org/namespaces/inkscape"
   width="123.0302mm"
   height="123.0285mm"
   viewBox="0 0 123.03021 123.02849"
   version="1.1"
   id="svg8"
   inkscape:version="1.0.1 (c497b03c, 2020-09-10)"
   sodipodi:docname="storeo-plus.svg">
  <defs
     id="defs2">
    <inkscape:perspective
       sodipodi:type="inkscape:persp3d"
       inkscape:vp_x="0 : -25.471502 : 1"
       inkscape:vp_y="0 : 999.99985 : 0"
       inkscape:vp_z="210.00001 : -25.471502 : 1"
       inkscape:persp3d-origin="105.00001 : -74.971486 : 1"
       id="perspective833" />
  </defs>
  <sodipodi:namedview
     id="base"
     pagecolor="#ffffff"
     bordercolor="#666666"
     borderopacity="1.0"
     inkscape:pageopacity="0.0"
     inkscape:pageshadow="2"
     inkscape:zoom="1.3751017"
     inkscape:cx="251.61875"
     inkscape:cy="231.83305"
     inkscape:document-units="mm"
     inkscape:current-layer="layer1"
     inkscape:document-rotation="0"
     showgrid="false"
     inkscape:window-width="1751"
     inkscape:window-height="943"
     inkscape:window-x="1490"
     inkscape:window-y="518"
     inkscape:window-maximized="0"
     showguides="false"
     inkscape:snap-page="true"
     fit-margin-top="5"
     fit-margin-left="5"
     fit-margin-bottom="5"
     fit-margin-right="5" />
  <metadata
     id="metadata5">
    <rdf:RDF>
      <cc:Work
         rdf:about="">
        <dc:format>image/svg+xml</dc:format>
        <dc:type
           rdf:resource="http://purl.org/dc/dcmitype/StillImage" />
        <dc:title></dc:title>
      </cc:Work>
    </rdf:RDF>
  </metadata>
  <g
     inkscape:label="Layer 1"
     inkscape:groupmode="layer"
     id="layer1"
     transform="translate(-40.558919,-37.505205)">
    <text
       xml:space="preserve"
       style="font-style:normal;font-weight:normal;font-size:10.5833px;line-height:1.25;font-family:sans-serif;white-space:pre;inline-size:19.1897;fill:#000000;fill-opacity:1;stroke:none;stroke-width:0.264583"
       x="102.80952"
       y="114.1488"
       id="text1513" />
    <path
       style="fill:#ffccaa;fill-opacity:0;stroke:#ffffff;stroke-width:5.61401;stroke-opacity:0;paint-order:stroke fill markers"
       d="m 379.79047,96.15419 c -3.25075,-2.00835 -8.42992,-5.98167 -11.50928,-8.8296 -5.39707,-4.99145 -5.66849,-5.14155 -7.5318,-4.16526 -1.06314,0.55703 -5.69266,2.03505 -10.28781,3.28449 -6.81677,1.8535 -9.19012,2.18861 -12.89211,1.82035 -6.56459,-0.65303 -14.08306,-4.47474 -18.97121,-9.64325 -3.90199,-4.125769 -4.5148,-5.661935 -1.64628,-4.126745 0.82509,0.441571 2.82435,0.802859 4.4428,0.802859 2.43868,0 3.33739,-0.449601 5.24764,-2.625248 1.96324,-2.23601 2.305,-3.213796 2.305,-6.594724 0,-3.798618 0.14261,-4.086336 3.31335,-6.684515 4.0973,-3.357433 4.66837,-5.758432 3.52877,-14.836288 -0.92823,-7.394112 -3.49766,-13.570016 -6.70238,-16.109905 -1.7329,-1.373405 -2.63376,-1.525971 -6.82393,-1.155671 -2.65511,0.23464 -5.8301,0.653079 -7.05553,0.929865 l -2.22807,0.503245 1.48538,-1.672444 c 6.36035,-7.161387 17.21585,-5.532707 27.85079,4.17853 2.6551,2.424499 6.85632,5.952239 9.33602,7.839421 4.90947,3.736348 7.97083,7.32799 9.62928,11.297203 0.58562,1.40158 1.37645,2.740965 1.7574,2.976409 1.1049,0.682863 8.53205,10.863654 10.59801,14.527244 1.03656,1.838153 3.46989,6.122242 5.40739,9.520204 1.93751,3.39795 3.29408,6.40584 3.01461,6.68419 -0.27947,0.27834 -3.01646,-2.10921 -6.08219,-5.30569 -3.06574,-3.196477 -5.74623,-5.639613 -5.95665,-5.429192 -1.02049,1.020487 5.47635,11.317152 15.41049,24.423672 0.85142,1.12332 1.26065,2.04239 0.9094,2.04239 -0.35125,0 -3.29834,-1.6432 -6.54909,-3.65154 z"
       id="path1582" />
    <a
       id="a953"
       transform="translate(-169.56465,-9.2355475)"
       style="fill:#ffffff;stroke:#ffffff">
      <path
         style="color:#000000;font-style:normal;font-variant:normal;font-weight:normal;font-stretch:normal;font-size:medium;line-height:normal;font-family:sans-serif;font-variant-ligatures:normal;font-variant-position:normal;font-variant-caps:normal;font-variant-numeric:normal;font-variant-alternates:normal;font-variant-east-asian:normal;font-feature-settings:normal;font-variation-settings:normal;text-indent:0;text-align:start;text-decoration:none;text-decoration-line:none;text-decoration-style:solid;text-decoration-color:#000000;letter-spacing:normal;word-spacing:normal;text-transform:none;writing-mode:lr-tb;direction:ltr;text-orientation:mixed;dominant-baseline:auto;baseline-shift:baseline;text-anchor:start;white-space:normal;shape-padding:0;shape-margin:0;inline-size:0;clip-rule:nonzero;display:inline;overflow:visible;visibility:visible;opacity:1;isolation:auto;mix-blend-mode:normal;color-interpolation:sRGB;color-interpolation-filters:linearRGB;solid-color:#000000;solid-opacity:1;vector-effect:none;fill:#ffffff;fill-opacity:1;fill-rule:nonzero;stroke:#ffffff;stroke-width:0.26458300000000001px;stroke-linecap:butt;stroke-linejoin:miter;stroke-miterlimit:4;stroke-dasharray:none;stroke-dashoffset:0;stroke-opacity:1;color-rendering:auto;image-rendering:auto;shape-rendering:auto;text-rendering:auto;enable-background:accumulate;stop-color:#000000;stop-opacity:1"
         d="m 215.38867,51.873047 v 0.132812 h -0.13281 v 75.130861 l 37.5,0.01 v 37.49024 h 75.26562 V 89.373047 l -37.49023,-0.06055 -0.01,-37.439453 z m 36.89324,60.491493 -22.09333,0.076 V 65.990273 h 45.02132 l 0.0385,23.524199 h -22.90416 m 14.5579,22.981218 -0.0933,-8.50418 8.51669,-0.12951 0.078,8.56269 m 15.19212,14.65009 -0.0486,-23.06558 21.89915,-0.0157 v 46.45026 h -45.0214 l 0.0125,-23.26773"
         id="path951"
         sodipodi:nodetypes="ccccccccccccccccccccccccccc" />
    </a>
  </g>
</svg>
